<svg version="1.1"
    xmlns="http://www.w3.org/2000/svg"
    xmlns:xlink="http://www.w3.org/1999/xlink" width="941" height="788">
    <defs/>
    <g>
        <g>
            <path fill="#ffffff" stroke="none" paint-order="stroke fill markers" d=" M 162.5152727272727 204.32999999999998 C 162.5152727272727 185.922347616 176.83532129512724 171 194.5 171 C 212.16467870487276 171 226.4847272727273 185.922347616 226.4847272727273 204.32999999999998 C 226.4847272727273 222.73765238399997 212.16467870487276 237.66 194.5 237.66 C 176.83532129512724 237.66 162.5152727272727 222.73765238399997 162.5152727272727 204.32999999999998 Z"/>
        </g>
        <g>
            <path fill="none" stroke="#000000" paint-order="fill stroke markers" d=" M 162.5152727272727 204.32999999999998 C 162.5152727272727 185.922347616 176.83532129512724 171 194.5 171 C 212.16467870487276 171 226.4847272727273 185.922347616 226.4847272727273 204.32999999999998 C 226.4847272727273 222.73765238399997 212.16467870487276 237.66 194.5 237.66 C 176.83532129512724 237.66 162.5152727272727 222.73765238399997 162.5152727272727 204.32999999999998 Z" stroke-miterlimit="10" stroke-dasharray=""/>
        </g>
        <g>
            <path fill="none" stroke="#000000" paint-order="fill stroke markers" d=" M 194.5 237.66 L 194.5 301.34000000000003" stroke-miterlimit="10" stroke-dasharray=""/>
        </g>
        <g>
            <path fill="none" stroke="#000000" paint-order="fill stroke markers" d=" M 160.63381818181816 261.54 L 228.36618181818184 261.54" stroke-miterlimit="10" stroke-dasharray=""/>
        </g>
        <g>
            <path fill="none" stroke="#000000" paint-order="fill stroke markers" d=" M 194.5 301.34000000000003 L 147.46363636363634 368" stroke-miterlimit="10" stroke-dasharray=""/>
        </g>
        <g>
            <path fill="none" stroke="#000000" paint-order="fill stroke markers" d=" M 194.5 301.34000000000003 L 241.53636363636366 368" stroke-miterlimit="10" stroke-dasharray=""/>
        </g>
        <g>
            <g>
                <path fill="none" stroke="none"/>
                <text fill="#000000" stroke="none" font-family="Arial" font-size="13px" font-style="normal" font-weight="bold" text-decoration="undefined" x="201" y="380.5" text-anchor="middle" dominant-baseline="central" transform="matrix(1 0 0 1 -6 2)">Autista</text>
            </g>
        </g>
        <g>
            <path fill="#C0C0C0" stroke="none" paint-order="stroke fill markers" d=" M 377 173 C 377 148.6994688 432.5166848 129 501 129 C 569.4833152 129 625 148.6994688 625 173 C 625 197.3005312 569.4833152 217 501 217 C 432.5166848 217 377 197.3005312 377 173 Z" fill-opacity="0.2"/>
        </g>
        <g>
            <path fill="#ffffff" stroke="none" paint-order="stroke fill markers" d=" M 370 166 C 370 141.6994688 425.5166848 122 494 122 C 562.4833152 122 618 141.6994688 618 166 C 618 190.3005312 562.4833152 210 494 210 C 425.5166848 210 370 190.3005312 370 166 Z"/>
        </g>
        <g>
            <path fill="none" stroke="#000000" paint-order="fill stroke markers" d=" M 370 166 C 370 141.6994688 425.5166848 122 494 122 C 562.4833152 122 618 141.6994688 618 166 C 618 190.3005312 562.4833152 210 494 210 C 425.5166848 210 370 190.3005312 370 166 Z" stroke-miterlimit="10" stroke-dasharray=""/>
        </g>
        <g>
            <g>
                <path fill="none" stroke="none"/>
                <text fill="#000000" stroke="none" font-family="Arial" font-size="13px" font-style="normal" font-weight="normal" text-decoration="undefined" x="500" y="156.5" text-anchor="middle" dominant-baseline="central" transform="matrix(1 0 0 1 -6 2)">«squadra»</text>
            </g>
        </g>
        <g>
            <g>
                <path fill="none" stroke="none"/>
                <text fill="#000000" stroke="none" font-family="Arial" font-size="13px" font-style="normal" font-weight="bold" text-decoration="undefined" x="500" y="171.5" text-anchor="middle" dominant-baseline="central" transform="matrix(1 0 0 1 -6 2)">Riceve scheda-missione</text>
            </g>
        </g>
        <g>
            <path fill="#C0C0C0" stroke="none" paint-order="stroke fill markers" d=" M 393 269 C 393 244.6994688 448.5166848 225 517 225 C 585.4833152 225 641 244.6994688 641 269 C 641 293.3005312 585.4833152 313 517 313 C 448.5166848 313 393 293.3005312 393 269 Z" fill-opacity="0.2"/>
        </g>
        <g>
            <path fill="#ffffff" stroke="none" paint-order="stroke fill markers" d=" M 386 262 C 386 237.6994688 441.5166848 218 510 218 C 578.4833152 218 634 237.6994688 634 262 C 634 286.3005312 578.4833152 306 510 306 C 441.5166848 306 386 286.3005312 386 262 Z"/>
        </g>
        <g>
            <path fill="none" stroke="#000000" paint-order="fill stroke markers" d=" M 386 262 C 386 237.6994688 441.5166848 218 510 218 C 578.4833152 218 634 237.6994688 634 262 C 634 286.3005312 578.4833152 306 510 306 C 441.5166848 306 386 286.3005312 386 262 Z" stroke-miterlimit="10" stroke-dasharray=""/>
        </g>
        <g>
            <g>
                <path fill="none" stroke="none"/>
                <text fill="#000000" stroke="none" font-family="Arial" font-size="13px" font-style="normal" font-weight="bold" text-decoration="undefined" x="516" y="261" text-anchor="middle" dominant-baseline="central" transform="matrix(1 0 0 1 -6 2)">Invia stato missione</text>
            </g>
        </g>
        <g>
            <path fill="#C0C0C0" stroke="none" paint-order="stroke fill markers" d=" M 353 573 C 353 548.6994688 408.5166848 529 477 529 C 545.4833152 529 601 548.6994688 601 573 C 601 597.3005312 545.4833152 617 477 617 C 408.5166848 617 353 597.3005312 353 573 Z" fill-opacity="0.2"/>
        </g>
        <g>
            <path fill="#ffffff" stroke="none" paint-order="stroke fill markers" d=" M 346 566 C 346 541.6994688 401.5166848 522 470 522 C 538.4833152 522 594 541.6994688 594 566 C 594 590.3005312 538.4833152 610 470 610 C 401.5166848 610 346 590.3005312 346 566 Z"/>
        </g>
        <g>
            <path fill="none" stroke="#000000" paint-order="fill stroke markers" d=" M 346 566 C 346 541.6994688 401.5166848 522 470 522 C 538.4833152 522 594 541.6994688 594 566 C 594 590.3005312 538.4833152 610 470 610 C 401.5166848 610 346 590.3005312 346 566 Z" stroke-miterlimit="10" stroke-dasharray=""/>
        </g>
        <g>
            <g>
                <path fill="none" stroke="none"/>
                <text fill="#000000" stroke="none" font-family="Arial" font-size="13px" font-style="normal" font-weight="bold" text-decoration="undefined" x="476" y="565" text-anchor="middle" dominant-baseline="central" transform="matrix(1 0 0 1 -6 2)">Imposta navigatore</text>
            </g>
        </g>
        <g>
            <path fill="#C0C0C0" stroke="none" paint-order="stroke fill markers" d=" M 289 693 C 289 668.6994688 340.93496319999997 649 405 649 C 469.06503680000003 649 521 668.6994688 521 693 C 521 717.3005312 469.06503680000003 737 405 737 C 340.93496319999997 737 289 717.3005312 289 693 Z" fill-opacity="0.2"/>
        </g>
        <g>
            <path fill="#ffffff" stroke="none" paint-order="stroke fill markers" d=" M 282 686 C 282 661.6994688 333.93496319999997 642 398 642 C 462.06503680000003 642 514 661.6994688 514 686 C 514 710.3005312 462.06503680000003 730 398 730 C 333.93496319999997 730 282 710.3005312 282 686 Z"/>
        </g>
        <g>
            <path fill="none" stroke="#000000" paint-order="fill stroke markers" d=" M 282 686 C 282 661.6994688 333.93496319999997 642 398 642 C 462.06503680000003 642 514 661.6994688 514 686 C 514 710.3005312 462.06503680000003 730 398 730 C 333.93496319999997 730 282 710.3005312 282 686 Z" stroke-miterlimit="10" stroke-dasharray=""/>
        </g>
        <g>
            <g>
                <path fill="none" stroke="none"/>
                <text fill="#000000" stroke="none" font-family="Arial" font-size="13px" font-style="normal" font-weight="normal" text-decoration="undefined" x="404" y="676.5" text-anchor="middle" dominant-baseline="central" transform="matrix(1 0 0 1 -6 2)">«squadra»</text>
            </g>
        </g>
        <g>
            <g>
                <path fill="none" stroke="none"/>
                <text fill="#000000" stroke="none" font-family="Arial" font-size="13px" font-style="normal" font-weight="bold" text-decoration="undefined" x="404" y="691.5" text-anchor="middle" dominant-baseline="central" transform="matrix(1 0 0 1 -6 2)">Firma scheda</text>
            </g>
        </g>
        <g>
            <path fill="#C0C0C0" stroke="none" paint-order="stroke fill markers" d=" M 17 569 C 17 551.3268864 81.0232736 537 160 537 C 238.97672640000002 537 303 551.3268864 303 569 C 303 586.6731136 238.97672640000002 601 160 601 C 81.0232736 601 17 586.6731136 17 569 Z" fill-opacity="0.2"/>
        </g>
        <g>
            <path fill="#ffffff" stroke="none" paint-order="stroke fill markers" d=" M 10 562 C 10 544.3268864 74.0232736 530 153 530 C 231.97672640000002 530 296 544.3268864 296 562 C 296 579.6731136 231.97672640000002 594 153 594 C 74.0232736 594 10 579.6731136 10 562 Z"/>
        </g>
        <g>
            <path fill="none" stroke="#000000" paint-order="fill stroke markers" d=" M 10 562 C 10 544.3268864 74.0232736 530 153 530 C 231.97672640000002 530 296 544.3268864 296 562 C 296 579.6731136 231.97672640000002 594 153 594 C 74.0232736 594 10 579.6731136 10 562 Z" stroke-miterlimit="10" stroke-dasharray=""/>
        </g>
        <g>
            <g>
                <path fill="none" stroke="none"/>
                <text fill="#000000" stroke="none" font-family="Arial" font-size="13px" font-style="normal" font-weight="bold" text-decoration="undefined" x="159" y="561" text-anchor="middle" dominant-baseline="central" transform="matrix(1 0 0 1 -6 2)">Inserisci chilometraggio mezzo</text>
            </g>
        </g>
        <g>
            <path fill="none" stroke="#000000" paint-order="fill stroke markers" d=" M 309 641 L 218 595" stroke-miterlimit="10" stroke-dasharray="3"/>
        </g>
        <g>
            <path fill="none" stroke="#000000" paint-order="fill stroke markers" d=" M 228.96880071144415 595.8278954961964 L 218 595 L 225.17070284507165 603.3415238840203" stroke-miterlimit="10" stroke-dasharray=""/>
        </g>
        <g>
            <rect fill="#ffffff" stroke="none" x="228" y="636" width="55.65625" height="13" transform="matrix(1 0 0 1 -6 2)"/>
        </g>
        <g>
            <g>
                <path fill="none" stroke="none"/>
                <text fill="#000000" stroke="none" font-family="Arial" font-size="13px" font-style="normal" font-weight="normal" text-decoration="undefined" x="255.828125" y="642.5" text-anchor="middle" dominant-baseline="central" transform="matrix(1 0 0 1 -6 2)">«include»</text>
            </g>
        </g>
        <g>
            <path fill="#ffffff" stroke="none" paint-order="stroke fill markers" d=" M 650 154 L 920 154 L 930 164 L 930 234 L 650 234 L 650 154"/>
        </g>
        <g>
            <path fill="none" stroke="#000000" paint-order="fill stroke markers" d=" M 650 154 L 920 154 L 930 164 L 930 234 L 650 234 L 650 154 L 650 154" stroke-miterlimit="10" stroke-dasharray=""/>
        </g>
        <g>
            <path fill="none" stroke="#000000" paint-order="fill stroke markers" d=" M 920 154 L 920 164 L 930 164 L 920 154" stroke-miterlimit="10" stroke-dasharray=""/>
        </g>
        <g>
            <g>
                <path fill="none" stroke="none"/>
                <text fill="#000000" stroke="none" font-family="Arial" font-size="13px" font-style="normal" font-weight="normal" text-decoration="undefined" x="661" y="157" text-anchor="start" dominant-baseline="text-before-edge" transform="matrix(1 0 0 1 -6 2)">Gli stati:</text>
            </g>
        </g>
        <g>
            <g>
                <path fill="none" stroke="none"/>
                <text fill="#000000" stroke="none" font-family="Arial" font-size="13px" font-style="normal" font-weight="normal" text-decoration="undefined" x="661" y="172" text-anchor="start" dominant-baseline="text-before-edge" transform="matrix(1 0 0 1 -6 2)">Partenza, Arrivo sull'obbiettivo, Trattato sul</text>
                <text fill="#000000" stroke="none" font-family="Arial" font-size="13px" font-style="normal" font-weight="normal" text-decoration="undefined" x="661" y="185" text-anchor="start" dominant-baseline="text-before-edge" transform="matrix(1 0 0 1 -6 2)">posto, Rendez-vous, Rientro in</text>
                <text fill="#000000" stroke="none" font-family="Arial" font-size="13px" font-style="normal" font-weight="normal" text-decoration="undefined" x="661" y="198" text-anchor="start" dominant-baseline="text-before-edge" transform="matrix(1 0 0 1 -6 2)">bianco/verde/giallo/rosso/nero, Arrivo a</text>
                <text fill="#000000" stroke="none" font-family="Arial" font-size="13px" font-style="normal" font-weight="normal" text-decoration="undefined" x="661" y="211" text-anchor="start" dominant-baseline="text-before-edge" transform="matrix(1 0 0 1 -6 2)">destinazione, Fine missione, Rientro in sede</text>
            </g>
        </g>
        <g>
            <path fill="#C0C0C0" stroke="none" paint-order="stroke fill markers" d=" M 441 477.5 C 441 457.3416048 500.322264 441 573.5 441 C 646.677736 441 706 457.3416048 706 477.5 C 706 497.6583952 646.677736 514 573.5 514 C 500.322264 514 441 497.6583952 441 477.5 Z" fill-opacity="0.2"/>
        </g>
        <g>
            <path fill="#ffffff" stroke="none" paint-order="stroke fill markers" d=" M 434 470.5 C 434 450.3416048 493.322264 434 566.5 434 C 639.677736 434 699 450.3416048 699 470.5 C 699 490.6583952 639.677736 507 566.5 507 C 493.322264 507 434 490.6583952 434 470.5 Z"/>
        </g>
        <g>
            <path fill="none" stroke="#000000" paint-order="fill stroke markers" d=" M 434 470.5 C 434 450.3416048 493.322264 434 566.5 434 C 639.677736 434 699 450.3416048 699 470.5 C 699 490.6583952 639.677736 507 566.5 507 C 493.322264 507 434 490.6583952 434 470.5 Z" stroke-miterlimit="10" stroke-dasharray=""/>
        </g>
        <g>
            <g>
                <path fill="none" stroke="none"/>
                <text fill="#000000" stroke="none" font-family="Arial" font-size="13px" font-style="normal" font-weight="normal" text-decoration="undefined" x="572.5" y="461" text-anchor="middle" dominant-baseline="central" transform="matrix(1 0 0 1 -6 2)">«squadra»</text>
            </g>
        </g>
        <g>
            <g>
                <path fill="none" stroke="none"/>
                <text fill="#000000" stroke="none" font-family="Arial" font-size="13px" font-style="normal" font-weight="bold" text-decoration="undefined" x="572.5" y="476" text-anchor="middle" dominant-baseline="central" transform="matrix(1 0 0 1 -6 2)">Invia esito della missione</text>
            </g>
        </g>
        <g>
            <path fill="none" stroke="#000000" paint-order="fill stroke markers" d=" M 260 278 L 385 270" stroke-miterlimit="10" stroke-dasharray=""/>
        </g>
        <g>
            <path fill="none" stroke="#000000" paint-order="fill stroke markers" d=" M 375.1269336556096 274.8500062844563 L 385 270 L 374.5892155042404 266.4481601693133" stroke-miterlimit="10" stroke-dasharray=""/>
        </g>
        <g>
            <path fill="none" stroke="#000000" paint-order="fill stroke markers" d=" M 260 350 L 426 521" stroke-miterlimit="10" stroke-dasharray=""/>
        </g>
        <g>
            <path fill="none" stroke="#000000" paint-order="fill stroke markers" d=" M 415.90089239503686 516.6401805561038 L 426 521 L 421.94171042212594 510.77599463506994" stroke-miterlimit="10" stroke-dasharray=""/>
        </g>
        <g>
            <path fill="none" stroke="#000000" paint-order="fill stroke markers" d=" M 251 395 L 375 641" stroke-miterlimit="10" stroke-dasharray=""/>
        </g>
        <g>
            <path fill="none" stroke="#000000" paint-order="fill stroke markers" d=" M 366.6666503553537 633.8197991880398 L 375 641 L 374.1846006406903 630.0302632718539" stroke-miterlimit="10" stroke-dasharray=""/>
        </g>
        <g>
            <path fill="none" stroke="#000000" paint-order="fill stroke markers" d=" M 378 211 L 260 256" stroke-miterlimit="10" stroke-dasharray=""/>
        </g>
        <g>
            <path fill="none" stroke="#000000" paint-order="fill stroke markers" d=" M 267.9956649690159 248.44557469404504 L 260 256 L 270.99557428149484 256.3120035578788" stroke-miterlimit="10" stroke-dasharray=""/>
        </g>
        <g>
            <path fill="#ffffff" stroke="none" paint-order="stroke fill markers" d=" M 682 522 L 887 522 L 897 532 L 897 587 L 682 587 L 682 522"/>
        </g>
        <g>
            <path fill="none" stroke="#000000" paint-order="fill stroke markers" d=" M 682 522 L 887 522 L 897 532 L 897 587 L 682 587 L 682 522 L 682 522" stroke-miterlimit="10" stroke-dasharray=""/>
        </g>
        <g>
            <path fill="none" stroke="#000000" paint-order="fill stroke markers" d=" M 887 522 L 887 532 L 897 532 L 887 522" stroke-miterlimit="10" stroke-dasharray=""/>
        </g>
        <g>
            <g>
                <path fill="none" stroke="none"/>
                <text fill="#000000" stroke="none" font-family="Arial" font-size="13px" font-style="normal" font-weight="normal" text-decoration="undefined" x="693" y="525" text-anchor="start" dominant-baseline="text-before-edge" transform="matrix(1 0 0 1 -6 2)">Possibili esiti:</text>
            </g>
        </g>
        <g>
            <g>
                <path fill="none" stroke="none"/>
                <text fill="#000000" stroke="none" font-family="Arial" font-size="13px" font-style="normal" font-weight="normal" text-decoration="undefined" x="693" y="540" text-anchor="start" dominant-baseline="text-before-edge" transform="matrix(1 0 0 1 -6 2)">Trasportato in PS, Rifiuto trasporto,</text>
                <text fill="#000000" stroke="none" font-family="Arial" font-size="13px" font-style="normal" font-weight="normal" text-decoration="undefined" x="693" y="553" text-anchor="start" dominant-baseline="text-before-edge" transform="matrix(1 0 0 1 -6 2)">Rendez-vous, trasportato con altro</text>
                <text fill="#000000" stroke="none" font-family="Arial" font-size="13px" font-style="normal" font-weight="normal" text-decoration="undefined" x="693" y="566" text-anchor="start" dominant-baseline="text-before-edge" transform="matrix(1 0 0 1 -6 2)">mezzo.</text>
            </g>
        </g>
        <g>
            <path fill="#C0C0C0" stroke="none" paint-order="stroke fill markers" d=" M 329 57.5 C 329 35.1324656 385.85983039999996 17 456 17 C 526.1401696 17 583 35.1324656 583 57.5 C 583 79.8675344 526.1401696 98 456 98 C 385.85983039999996 98 329 79.8675344 329 57.5 Z" fill-opacity="0.2"/>
        </g>
        <g>
            <path fill="#ffffff" stroke="none" paint-order="stroke fill markers" d=" M 322 50.5 C 322 28.1324656 378.85983039999996 10 449 10 C 519.1401696 10 576 28.1324656 576 50.5 C 576 72.8675344 519.1401696 91 449 91 C 378.85983039999996 91 322 72.8675344 322 50.5 Z"/>
        </g>
        <g>
            <path fill="none" stroke="#000000" paint-order="fill stroke markers" d=" M 322 50.5 C 322 28.1324656 378.85983039999996 10 449 10 C 519.1401696 10 576 28.1324656 576 50.5 C 576 72.8675344 519.1401696 91 449 91 C 378.85983039999996 91 322 72.8675344 322 50.5 Z" stroke-miterlimit="10" stroke-dasharray=""/>
        </g>
        <g>
            <g>
                <path fill="none" stroke="none"/>
                <text fill="#000000" stroke="none" font-family="Arial" font-size="13px" font-style="normal" font-weight="normal" text-decoration="undefined" x="455" y="41" text-anchor="middle" dominant-baseline="central" transform="matrix(1 0 0 1 -6 2)">«squadra»</text>
            </g>
        </g>
        <g>
            <g>
                <path fill="none" stroke="none"/>
                <text fill="#000000" stroke="none" font-family="Arial" font-size="13px" font-style="normal" font-weight="bold" text-decoration="undefined" x="455" y="56" text-anchor="middle" dominant-baseline="central" transform="matrix(1 0 0 1 -6 2)">Passa a prossima missione</text>
            </g>
        </g>
        <g>
            <path fill="none" stroke="#000000" paint-order="fill stroke markers" d=" M 260 222 L 403 92" stroke-miterlimit="10" stroke-dasharray=""/>
        </g>
        <g>
            <path fill="none" stroke="#000000" paint-order="fill stroke markers" d=" M 398.31185769026683 101.95094576830212 L 403 92 L 392.6486015496341 95.72136401360612" stroke-miterlimit="10" stroke-dasharray=""/>
        </g>
        <g>
            <path fill="none" stroke="#000000" paint-order="fill stroke markers" d=" M 260 315 L 493 433" stroke-miterlimit="10" stroke-dasharray=""/>
        </g>
        <g>
            <path fill="none" stroke="#000000" paint-order="fill stroke markers" d=" M 482.0318241348404 432.1638671212481 L 493 433 L 485.8355636970375 424.65309323996047" stroke-miterlimit="10" stroke-dasharray=""/>
        </g>
        <g>
            <rect fill="#ffffff" stroke="none" x="656" y="648" width="232" height="128" transform="matrix(1 0 0 1 -6 2)"/>
        </g>
        <g>
            <path fill="none" stroke="#000000" paint-order="fill stroke markers" d=" M 650 650 L 882 650 L 882 778 L 650 778 L 650 650 Z Z" stroke-miterlimit="10" stroke-dasharray=""/>
        </g>
        <g>
            <g>
                <path fill="none" stroke="none"/>
                <text fill="#000000" stroke="none" font-family="Arial" font-size="13px" font-style="normal" font-weight="normal" text-decoration="undefined" x="661" y="653" text-anchor="start" dominant-baseline="text-before-edge" transform="matrix(1 0 0 1 -6 2)">Molti UC si ripropongono anche nel</text>
                <text fill="#000000" stroke="none" font-family="Arial" font-size="13px" font-style="normal" font-weight="normal" text-decoration="undefined" x="661" y="666" text-anchor="start" dominant-baseline="text-before-edge" transform="matrix(1 0 0 1 -6 2)">diagramma della squadra. Conviene</text>
                <text fill="#000000" stroke="none" font-family="Arial" font-size="13px" font-style="normal" font-weight="normal" text-decoration="undefined" x="661" y="679" text-anchor="start" dominant-baseline="text-before-edge" transform="matrix(1 0 0 1 -6 2)">trattare l'autista come membro della</text>
                <text fill="#000000" stroke="none" font-family="Arial" font-size="13px" font-style="normal" font-weight="normal" text-decoration="undefined" x="661" y="692" text-anchor="start" dominant-baseline="text-before-edge" transform="matrix(1 0 0 1 -6 2)">squadra con use case aggiuntivi?</text>
            </g>
        </g>
        <g>
            <path fill="none" stroke="#000000" paint-order="fill stroke markers" d=" M 634 266 L 674 266 L 674 235" stroke-miterlimit="10" stroke-dasharray="3"/>
        </g>
        <g>
            <path fill="none" stroke="#000000" paint-order="fill stroke markers" d=" M 722 522 L 722 466 L 699 466" stroke-miterlimit="10" stroke-dasharray="3"/>
        </g>
        <g>
            <path fill="#C0C0C0" stroke="none" paint-order="stroke fill markers" d=" M 617 393 C 617 370.908608 652.817216 353 697 353 C 741.182784 353 777 370.908608 777 393 C 777 415.091392 741.182784 433 697 433 C 652.817216 433 617 415.091392 617 393 Z" fill-opacity="0.2"/>
        </g>
        <g>
            <path fill="#ffffff" stroke="none" paint-order="stroke fill markers" d=" M 610 386 C 610 363.908608 645.817216 346 690 346 C 734.182784 346 770 363.908608 770 386 C 770 408.091392 734.182784 426 690 426 C 645.817216 426 610 408.091392 610 386 Z"/>
        </g>
        <g>
            <path fill="none" stroke="#000000" paint-order="fill stroke markers" d=" M 610 386 C 610 363.908608 645.817216 346 690 346 C 734.182784 346 770 363.908608 770 386 C 770 408.091392 734.182784 426 690 426 C 645.817216 426 610 408.091392 610 386 Z" stroke-miterlimit="10" stroke-dasharray=""/>
        </g>
        <g>
            <g>
                <path fill="none" stroke="none"/>
                <text fill="#000000" stroke="none" font-family="Arial" font-size="13px" font-style="normal" font-weight="bold" text-decoration="undefined" x="696" y="385" text-anchor="middle" dominant-baseline="central" transform="matrix(1 0 0 1 -6 2)">Salva orario</text>
            </g>
        </g>
        <g>
            <path fill="none" stroke="#000000" paint-order="fill stroke markers" d=" M 575 307 L 630 345" stroke-miterlimit="10" stroke-dasharray="3"/>
        </g>
        <g>
            <path fill="none" stroke="#000000" paint-order="fill stroke markers" d=" M 619.2460350287924 342.6865096935491 L 630 345 L 624.0316831281174 335.75991376031584" stroke-miterlimit="10" stroke-dasharray=""/>
        </g>
        <g>
            <rect fill="#ffffff" stroke="none" x="619" y="318" width="52.0380859375" height="13" transform="matrix(1 0 0 1 -6 2)"/>
        </g>
        <g>
            <g>
                <path fill="none" stroke="none"/>
                <text fill="#000000" stroke="none" font-family="Arial" font-size="13px" font-style="normal" font-weight="normal" text-decoration="undefined" x="645.01904296875" y="324.5" text-anchor="middle" dominant-baseline="central" transform="matrix(1 0 0 1 -6 2)">«invoke»</text>
            </g>
        </g>
        <g>
            <path fill="none" stroke="#000000" paint-order="fill stroke markers" d=" M 260 296 L 609 369" stroke-miterlimit="10" stroke-dasharray=""/>
        </g>
        <g>
            <path fill="none" stroke="#000000" paint-order="fill stroke markers" d=" M 598.1907543752542 371.0396590459962 L 609 369 L 599.9144523764988 362.7989658619636" stroke-miterlimit="10" stroke-dasharray=""/>
        </g>
        <g>
            <path fill="none" stroke="#000000" paint-order="fill stroke markers" d=" M 177 395 L 158 529" stroke-miterlimit="10" stroke-dasharray=""/>
        </g>
        <g>
            <path fill="none" stroke="#000000" paint-order="fill stroke markers" d=" M 155.25887614666883 518.3470079310694 L 158 529 L 163.59453566710468 519.5289298033699" stroke-miterlimit="10" stroke-dasharray=""/>
        </g>
    </g>
</svg>