<svg version="1.1"
    xmlns="http://www.w3.org/2000/svg"
    xmlns:xlink="http://www.w3.org/1999/xlink" width="873" height="654">
    <defs/>
    <g>
        <g>
            <path fill="#ffffff" stroke="none" paint-order="stroke fill markers" d=" M 57.58962730823865 181.52999999999997 C 57.58962730823865 166.87788425599996 69.03127415391137 155 83.145263671875 155 C 97.25925318983863 155 108.70090003551135 166.87788425599996 108.70090003551135 181.52999999999997 C 108.70090003551135 196.182115744 97.25925318983863 208.06 83.145263671875 208.06 C 69.03127415391137 208.06 57.58962730823865 196.182115744 57.58962730823865 181.52999999999997 Z"/>
        </g>
        <g>
            <path fill="none" stroke="#000000" paint-order="fill stroke markers" d=" M 57.58962730823865 181.52999999999997 C 57.58962730823865 166.87788425599996 69.03127415391137 155 83.145263671875 155 C 97.25925318983863 155 108.70090003551135 166.87788425599996 108.70090003551135 181.52999999999997 C 108.70090003551135 196.182115744 97.25925318983863 208.06 83.145263671875 208.06 C 69.03127415391137 208.06 57.58962730823865 196.182115744 57.58962730823865 181.52999999999997 Z" stroke-miterlimit="10" stroke-dasharray=""/>
        </g>
        <g>
            <path fill="none" stroke="#000000" paint-order="fill stroke markers" d=" M 83.145263671875 208.06 L 83.145263671875 258.94" stroke-miterlimit="10" stroke-dasharray=""/>
        </g>
        <g>
            <path fill="none" stroke="#000000" paint-order="fill stroke markers" d=" M 56.08635458096592 227.14 L 110.20417276278408 227.14" stroke-miterlimit="10" stroke-dasharray=""/>
        </g>
        <g>
            <path fill="none" stroke="#000000" paint-order="fill stroke markers" d=" M 83.145263671875 258.94 L 45.563445490056836 312" stroke-miterlimit="10" stroke-dasharray=""/>
        </g>
        <g>
            <path fill="none" stroke="#000000" paint-order="fill stroke markers" d=" M 83.145263671875 258.94 L 120.72708185369316 312" stroke-miterlimit="10" stroke-dasharray=""/>
        </g>
        <g>
            <g>
                <path fill="none" stroke="none"/>
                <text fill="#000000" stroke="none" font-family="Arial" font-size="13px" font-style="normal" font-weight="bold" text-decoration="undefined" x="201.645263671875" y="412.5" text-anchor="middle" dominant-baseline="central" transform="matrix(1 0 0 1 -118 -86)">Centrale</text>
            </g>
        </g>
        <g>
            <path fill="#C0C0C0" stroke="none" paint-order="stroke fill markers" d=" M 297 189 C 297 169.1177472 359.68012799999997 153 437 153 C 514.319872 153 577 169.1177472 577 189 C 577 208.8822528 514.319872 225 437 225 C 359.68012799999997 225 297 208.8822528 297 189 Z" fill-opacity="0.2"/>
        </g>
        <g>
            <path fill="#ffffff" stroke="none" paint-order="stroke fill markers" d=" M 290 182 C 290 162.1177472 352.68012799999997 146 430 146 C 507.31987200000003 146 570 162.1177472 570 182 C 570 201.8822528 507.31987200000003 218 430 218 C 352.68012799999997 218 290 201.8822528 290 182 Z"/>
        </g>
        <g>
            <path fill="none" stroke="#000000" paint-order="fill stroke markers" d=" M 290 182 C 290 162.1177472 352.68012799999997 146 430 146 C 507.31987200000003 146 570 162.1177472 570 182 C 570 201.8822528 507.31987200000003 218 430 218 C 352.68012799999997 218 290 201.8822528 290 182 Z" stroke-miterlimit="10" stroke-dasharray=""/>
        </g>
        <g>
            <g>
                <path fill="none" stroke="none"/>
                <text fill="#000000" stroke="none" font-family="Arial" font-size="13px" font-style="normal" font-weight="bold" text-decoration="undefined" x="548" y="269" text-anchor="middle" dominant-baseline="central" transform="matrix(1 0 0 1 -118 -86)">Inserisce informazioni reperite</text>
            </g>
        </g>
        <g>
            <path fill="#C0C0C0" stroke="none" paint-order="stroke fill markers" d=" M 569 413 C 569 393.1177472 631.4562704 377 708.5 377 C 785.5437296 377 848 393.1177472 848 413 C 848 432.88225279999995 785.5437296 449 708.5 449 C 631.4562704 449 569 432.88225279999995 569 413 Z" fill-opacity="0.2"/>
        </g>
        <g>
            <path fill="#ffffff" stroke="none" paint-order="stroke fill markers" d=" M 562 406 C 562 386.1177472 624.4562704 370 701.5 370 C 778.5437296 370 841 386.1177472 841 406 C 841 425.8822528 778.5437296 442 701.5 442 C 624.4562704 442 562 425.8822528 562 406 Z"/>
        </g>
        <g>
            <path fill="none" stroke="#000000" paint-order="fill stroke markers" d=" M 562 406 C 562 386.1177472 624.4562704 370 701.5 370 C 778.5437296 370 841 386.1177472 841 406 C 841 425.8822528 778.5437296 442 701.5 442 C 624.4562704 442 562 425.8822528 562 406 Z" stroke-miterlimit="10" stroke-dasharray=""/>
        </g>
        <g>
            <g>
                <path fill="none" stroke="none"/>
                <text fill="#000000" stroke="none" font-family="Arial" font-size="13px" font-style="normal" font-weight="bold" text-decoration="undefined" x="819.5" y="493" text-anchor="middle" dominant-baseline="central" transform="matrix(1 0 0 1 -118 -86)">Specifica codice di attivazione</text>
            </g>
        </g>
        <g>
            <path fill="#C0C0C0" stroke="none" paint-order="stroke fill markers" d=" M 337 77 C 337 57.1177472 390.725824 41 457 41 C 523.274176 41 577 57.1177472 577 77 C 577 96.8822528 523.274176 113 457 113 C 390.725824 113 337 96.8822528 337 77 Z" fill-opacity="0.2"/>
        </g>
        <g>
            <path fill="#ffffff" stroke="none" paint-order="stroke fill markers" d=" M 330 70 C 330 50.1177472 383.725824 34 450 34 C 516.274176 34 570 50.1177472 570 70 C 570 89.8822528 516.274176 106 450 106 C 383.725824 106 330 89.8822528 330 70 Z"/>
        </g>
        <g>
            <path fill="none" stroke="#000000" paint-order="fill stroke markers" d=" M 330 70 C 330 50.1177472 383.725824 34 450 34 C 516.274176 34 570 50.1177472 570 70 C 570 89.8822528 516.274176 106 450 106 C 383.725824 106 330 89.8822528 330 70 Z" stroke-miterlimit="10" stroke-dasharray=""/>
        </g>
        <g>
            <g>
                <path fill="none" stroke="none"/>
                <text fill="#000000" stroke="none" font-family="Arial" font-size="13px" font-style="normal" font-weight="bold" text-decoration="undefined" x="568" y="157" text-anchor="middle" dominant-baseline="central" transform="matrix(1 0 0 1 -118 -86)">Inizia nuova missione</text>
            </g>
        </g>
        <g>
            <path fill="#C0C0C0" stroke="none" paint-order="stroke fill markers" d=" M 305 317.5 C 305 297.3416048 373.50042559999997 281 458 281 C 542.4995744 281 611 297.3416048 611 317.5 C 611 337.6583952 542.4995744 354 458 354 C 373.50042559999997 354 305 337.6583952 305 317.5 Z" fill-opacity="0.2"/>
        </g>
        <g>
            <path fill="#ffffff" stroke="none" paint-order="stroke fill markers" d=" M 298 310.5 C 298 290.3416048 366.50042559999997 274 451 274 C 535.4995744 274 604 290.3416048 604 310.5 C 604 330.6583952 535.4995744 347 451 347 C 366.50042559999997 347 298 330.6583952 298 310.5 Z"/>
        </g>
        <g>
            <path fill="none" stroke="#000000" paint-order="fill stroke markers" d=" M 298 310.5 C 298 290.3416048 366.50042559999997 274 451 274 C 535.4995744 274 604 290.3416048 604 310.5 C 604 330.6583952 535.4995744 347 451 347 C 366.50042559999997 347 298 330.6583952 298 310.5 Z" stroke-miterlimit="10" stroke-dasharray=""/>
        </g>
        <g>
            <g>
                <path fill="none" stroke="none"/>
                <text fill="#000000" stroke="none" font-family="Arial" font-size="13px" font-style="normal" font-weight="bold" text-decoration="undefined" x="569" y="397.5" text-anchor="middle" dominant-baseline="central" transform="matrix(1 0 0 1 -118 -86)">Assegna missione e invia scheda</text>
            </g>
        </g>
        <g>
            <path fill="#C0C0C0" stroke="none" paint-order="stroke fill markers" d=" M 57 529.5 C 57 507.13246560000005 110.72582399999999 489 177 489 C 243.274176 489 297 507.13246560000005 297 529.5 C 297 551.8675344 243.274176 570 177 570 C 110.72582399999999 570 57 551.8675344 57 529.5 Z" fill-opacity="0.2"/>
        </g>
        <g>
            <path fill="#ffffff" stroke="none" paint-order="stroke fill markers" d=" M 50 522.5 C 50 500.13246560000005 103.72582399999999 482 170 482 C 236.274176 482 290 500.13246560000005 290 522.5 C 290 544.8675344 236.274176 563 170 563 C 103.72582399999999 563 50 544.8675344 50 522.5 Z"/>
        </g>
        <g>
            <path fill="none" stroke="#000000" paint-order="fill stroke markers" d=" M 50 522.5 C 50 500.13246560000005 103.72582399999999 482 170 482 C 236.274176 482 290 500.13246560000005 290 522.5 C 290 544.8675344 236.274176 563 170 563 C 103.72582399999999 563 50 544.8675344 50 522.5 Z" stroke-miterlimit="10" stroke-dasharray=""/>
        </g>
        <g>
            <g>
                <path fill="none" stroke="none"/>
                <text fill="#000000" stroke="none" font-family="Arial" font-size="13px" font-style="normal" font-weight="bold" text-decoration="undefined" x="288" y="609.5" text-anchor="middle" dominant-baseline="central" transform="matrix(1 0 0 1 -118 -86)">Osserva posizione mezzi</text>
            </g>
        </g>
        <g>
            <path fill="none" stroke="#000000" paint-order="fill stroke markers" d=" M 157 210 L 373 107" stroke-miterlimit="10" stroke-dasharray=""/>
        </g>
        <g>
            <path fill="none" stroke="#000000" paint-order="fill stroke markers" d=" M 365.6387396733115 115.17385138124746 L 373 107 L 362.0150171648279 107.57458864501015" stroke-miterlimit="10" stroke-dasharray=""/>
        </g>
        <g>
            <path fill="none" stroke="#000000" paint-order="fill stroke markers" d=" M 157 232 L 289 208" stroke-miterlimit="10" stroke-dasharray=""/>
        </g>
        <g>
            <path fill="none" stroke="#000000" paint-order="fill stroke markers" d=" M 279.7542714298503 213.95957240136545 L 289 208 L 278.2482285730592 205.67633668901465" stroke-miterlimit="10" stroke-dasharray=""/>
        </g>
        <g>
            <path fill="none" stroke="#000000" paint-order="fill stroke markers" d=" M 157 259 L 297 283" stroke-miterlimit="10" stroke-dasharray=""/>
        </g>
        <g>
            <path fill="none" stroke="#000000" paint-order="fill stroke markers" d=" M 286.2721853120611 285.4318700666857 L 297 283 L 287.6946976717277 277.1338813019638" stroke-miterlimit="10" stroke-dasharray=""/>
        </g>
        <g>
            <path fill="none" stroke="#000000" paint-order="fill stroke markers" d=" M 157 481 L 112 339" stroke-miterlimit="10" stroke-dasharray=""/>
        </g>
        <g>
            <path fill="none" stroke="#000000" paint-order="fill stroke markers" d=" M 119.08293387458298 347.41617773863436 L 112 339 L 111.0572542227539 349.95952692407315" stroke-miterlimit="10" stroke-dasharray=""/>
        </g>
        <g>
            <path fill="#C0C0C0" stroke="none" paint-order="stroke fill markers" d=" M 393 469 C 393 449.11774720000005 432.17508 433 480.5 433 C 528.82492 433 568 449.11774720000005 568 469 C 568 488.88225279999995 528.82492 505 480.5 505 C 432.17508 505 393 488.88225279999995 393 469 Z" fill-opacity="0.2"/>
        </g>
        <g>
            <path fill="#ffffff" stroke="none" paint-order="stroke fill markers" d=" M 386 462 C 386 442.11774720000005 425.17508 426 473.5 426 C 521.82492 426 561 442.11774720000005 561 462 C 561 481.88225279999995 521.82492 498 473.5 498 C 425.17508 498 386 481.88225279999995 386 462 Z"/>
        </g>
        <g>
            <path fill="none" stroke="#000000" paint-order="fill stroke markers" d=" M 386 462 C 386 442.11774720000005 425.17508 426 473.5 426 C 521.82492 426 561 442.11774720000005 561 462 C 561 481.88225279999995 521.82492 498 473.5 498 C 425.17508 498 386 481.88225279999995 386 462 Z" stroke-miterlimit="10" stroke-dasharray=""/>
        </g>
        <g>
            <g>
                <path fill="none" stroke="none"/>
                <text fill="#000000" stroke="none" font-family="Arial" font-size="13px" font-style="normal" font-weight="bold" text-decoration="undefined" x="591.5" y="549" text-anchor="middle" dominant-baseline="central" transform="matrix(1 0 0 1 -118 -86)">Aggiorna dispatch</text>
            </g>
        </g>
        <g>
            <path fill="none" stroke="#000000" paint-order="fill stroke markers" d=" M 157 287 L 406 425" stroke-miterlimit="10" stroke-dasharray=""/>
        </g>
        <g>
            <path fill="none" stroke="#000000" paint-order="fill stroke markers" d=" M 395.070621801008 423.75553538282617 L 406 425 L 399.1517319310907 416.39179319158995" stroke-miterlimit="10" stroke-dasharray=""/>
        </g>
        <g>
            <path fill="#C0C0C0" stroke="none" paint-order="stroke fill markers" d=" M 297 557 C 297 541.5360256 376.69330560000003 529 475 529 C 573.3066944 529 653 541.5360256 653 557 C 653 572.4639744 573.3066944 585 475 585 C 376.69330560000003 585 297 572.4639744 297 557 Z" fill-opacity="0.2"/>
        </g>
        <g>
            <path fill="#ffffff" stroke="none" paint-order="stroke fill markers" d=" M 290 550 C 290 534.5360256 369.69330560000003 522 468 522 C 566.3066944 522 646 534.5360256 646 550 C 646 565.4639744 566.3066944 578 468 578 C 369.69330560000003 578 290 565.4639744 290 550 Z"/>
        </g>
        <g>
            <path fill="none" stroke="#000000" paint-order="fill stroke markers" d=" M 290 550 C 290 534.5360256 369.69330560000003 522 468 522 C 566.3066944 522 646 534.5360256 646 550 C 646 565.4639744 566.3066944 578 468 578 C 369.69330560000003 578 290 565.4639744 290 550 Z" stroke-miterlimit="10" stroke-dasharray=""/>
        </g>
        <g>
            <g>
                <path fill="none" stroke="none"/>
                <text fill="#000000" stroke="none" font-family="Arial" font-size="13px" font-style="normal" font-weight="bold" text-decoration="undefined" x="586" y="637" text-anchor="middle" dominant-baseline="central" transform="matrix(1 0 0 1 -118 -86)">Modifica stato di un mezzo di soccorso</text>
            </g>
        </g>
        <g>
            <path fill="none" stroke="#000000" paint-order="fill stroke markers" d=" M 157 305 L 431 521" stroke-miterlimit="10" stroke-dasharray=""/>
        </g>
        <g>
            <path fill="none" stroke="#000000" paint-order="fill stroke markers" d=" M 420.41296428658086 518.0142547324349 L 431 521 L 425.6250759799681 511.40259452878627" stroke-miterlimit="10" stroke-dasharray=""/>
        </g>
        <g>
            <path fill="#ffffff" stroke="none" paint-order="stroke fill markers" d=" M 650 554 L 852 554 L 862 564 L 862 643 L 650 643 L 650 554"/>
        </g>
        <g>
            <path fill="none" stroke="#000000" paint-order="fill stroke markers" d=" M 650 554 L 852 554 L 862 564 L 862 643 L 650 643 L 650 554 L 650 554" stroke-miterlimit="10" stroke-dasharray=""/>
        </g>
        <g>
            <path fill="none" stroke="#000000" paint-order="fill stroke markers" d=" M 852 554 L 852 564 L 862 564 L 852 554" stroke-miterlimit="10" stroke-dasharray=""/>
        </g>
        <g>
            <g>
                <path fill="none" stroke="none"/>
                <text fill="#000000" stroke="none" font-family="Arial" font-size="13px" font-style="normal" font-weight="normal" text-decoration="undefined" x="773" y="645" text-anchor="start" dominant-baseline="text-before-edge" transform="matrix(1 0 0 1 -118 -86)">La centrale eventualmente può</text>
                <text fill="#000000" stroke="none" font-family="Arial" font-size="13px" font-style="normal" font-weight="normal" text-decoration="undefined" x="773" y="658" text-anchor="start" dominant-baseline="text-before-edge" transform="matrix(1 0 0 1 -118 -86)">mettere (temporaneamente) un</text>
                <text fill="#000000" stroke="none" font-family="Arial" font-size="13px" font-style="normal" font-weight="normal" text-decoration="undefined" x="773" y="671" text-anchor="start" dominant-baseline="text-before-edge" transform="matrix(1 0 0 1 -118 -86)">mezzo di soccorso in non</text>
                <text fill="#000000" stroke="none" font-family="Arial" font-size="13px" font-style="normal" font-weight="normal" text-decoration="undefined" x="773" y="684" text-anchor="start" dominant-baseline="text-before-edge" transform="matrix(1 0 0 1 -118 -86)">operatività (esempio: Mezzo fuori</text>
                <text fill="#000000" stroke="none" font-family="Arial" font-size="13px" font-style="normal" font-weight="normal" text-decoration="undefined" x="773" y="697" text-anchor="start" dominant-baseline="text-before-edge" transform="matrix(1 0 0 1 -118 -86)">uso o assegnato a un servizio</text>
                <text fill="#000000" stroke="none" font-family="Arial" font-size="13px" font-style="normal" font-weight="normal" text-decoration="undefined" x="773" y="710" text-anchor="start" dominant-baseline="text-before-edge" transform="matrix(1 0 0 1 -118 -86)">straordinario)</text>
            </g>
        </g>
        <g>
            <path fill="none" stroke="#000000" paint-order="fill stroke markers" d=" M 646 546 L 690 546 L 690 554" stroke-miterlimit="10" stroke-dasharray="3"/>
        </g>
        <g>
            <path fill="none" stroke="#000000" paint-order="fill stroke markers" d=" M 550 348 L 605 369" stroke-miterlimit="10" stroke-dasharray="3"/>
        </g>
        <g>
            <path fill="none" stroke="#000000" paint-order="fill stroke markers" d=" M 594.0043007211176 369.3075668518939 L 605 369 L 597.0073838693718 361.44234908265656" stroke-miterlimit="10" stroke-dasharray=""/>
        </g>
        <g>
            <rect fill="#ffffff" stroke="none" x="700" y="429" width="55.65625" height="13" transform="matrix(1 0 0 1 -118 -86)"/>
        </g>
        <g>
            <g>
                <path fill="none" stroke="none"/>
                <text fill="#000000" stroke="none" font-family="Arial" font-size="13px" font-style="normal" font-weight="normal" text-decoration="undefined" x="727.828125" y="435.5" text-anchor="middle" dominant-baseline="central" transform="matrix(1 0 0 1 -118 -86)">«include»</text>
            </g>
        </g>
        <g>
            <path fill="#C0C0C0" stroke="none" paint-order="stroke fill markers" d=" M 17 57 C 17 34.908608 87.51514399999999 17 174.5 17 C 261.48485600000004 17 332 34.908608 332 57 C 332 79.09139199999998 261.48485600000004 97 174.5 97 C 87.51514399999999 97 17 79.09139199999998 17 57 Z" fill-opacity="0.2"/>
        </g>
        <g>
            <path fill="#ffffff" stroke="none" paint-order="stroke fill markers" d=" M 10 50 C 10 27.908608 80.51514399999999 10 167.5 10 C 254.48485600000004 10 325 27.908608 325 50 C 325 72.09139199999998 254.48485600000004 90 167.5 90 C 80.51514399999999 90 10 72.09139199999998 10 50 Z"/>
        </g>
        <g>
            <path fill="none" stroke="#000000" paint-order="fill stroke markers" d=" M 10 50 C 10 27.908608 80.51514399999999 10 167.5 10 C 254.48485600000004 10 325 27.908608 325 50 C 325 72.09139199999998 254.48485600000004 90 167.5 90 C 80.51514399999999 90 10 72.09139199999998 10 50 Z" stroke-miterlimit="10" stroke-dasharray=""/>
        </g>
        <g>
            <g>
                <path fill="none" stroke="none"/>
                <text fill="#000000" stroke="none" font-family="Arial" font-size="13px" font-style="normal" font-weight="bold" text-decoration="undefined" x="285.5" y="137" text-anchor="middle" dominant-baseline="central" transform="matrix(1 0 0 1 -118 -86)">Riceve informazioni del chiamante</text>
            </g>
        </g>
        <g>
            <path fill="none" stroke="#000000" paint-order="fill stroke markers" d=" M 149 91 L 123 153" stroke-miterlimit="10" stroke-dasharray=""/>
        </g>
        <g>
            <path fill="none" stroke="#000000" paint-order="fill stroke markers" d=" M 123.0481838446999 142.0001055315467 L 123 153 L 130.81217109431066 145.2559711523512" stroke-miterlimit="10" stroke-dasharray=""/>
        </g>
    </g>
</svg>