<svg version="1.1"
    xmlns="http://www.w3.org/2000/svg"
    xmlns:xlink="http://www.w3.org/1999/xlink" width="754" height="380">
    <defs/>
    <g>
        <g>
            <path fill="#ffffff" stroke="none" paint-order="stroke fill markers" d=" M 68.30956534090909 65.61 C 68.30956534090909 48.704562272000004 81.47825321989092 35 97.72265625 35 C 113.96705928010908 35 127.1357471590909 48.704562272000004 127.1357471590909 65.61 C 127.1357471590909 82.515437728 113.96705928010908 96.22 97.72265625 96.22 C 81.47825321989092 96.22 68.30956534090909 82.515437728 68.30956534090909 65.61 Z"/>
        </g>
        <g>
            <path fill="none" stroke="#000000" paint-order="fill stroke markers" d=" M 68.30956534090909 65.61 C 68.30956534090909 48.704562272000004 81.47825321989092 35 97.72265625 35 C 113.96705928010908 35 127.1357471590909 48.704562272000004 127.1357471590909 65.61 C 127.1357471590909 82.515437728 113.96705928010908 96.22 97.72265625 96.22 C 81.47825321989092 96.22 68.30956534090909 82.515437728 68.30956534090909 65.61 Z" stroke-miterlimit="10" stroke-dasharray=""/>
        </g>
        <g>
            <path fill="none" stroke="#000000" paint-order="fill stroke markers" d=" M 97.72265625 96.22 L 97.72265625 154.78" stroke-miterlimit="10" stroke-dasharray=""/>
        </g>
        <g>
            <path fill="none" stroke="#000000" paint-order="fill stroke markers" d=" M 66.57938352272728 118.18 L 128.86592897727272 118.18" stroke-miterlimit="10" stroke-dasharray=""/>
        </g>
        <g>
            <path fill="none" stroke="#000000" paint-order="fill stroke markers" d=" M 97.72265625 154.78 L 54.46811079545455 216" stroke-miterlimit="10" stroke-dasharray=""/>
        </g>
        <g>
            <path fill="none" stroke="#000000" paint-order="fill stroke markers" d=" M 97.72265625 154.78 L 140.97720170454545 216" stroke-miterlimit="10" stroke-dasharray=""/>
        </g>
        <g>
            <g>
                <path fill="none" stroke="none"/>
                <text fill="#000000" stroke="none" font-family="Arial" font-size="13px" font-style="normal" font-weight="bold" text-decoration="undefined" x="128.22265625" y="252.5" text-anchor="middle" dominant-baseline="central" transform="matrix(1 0 0 1 -30 -22)">Associazione</text>
            </g>
        </g>
        <g>
            <path fill="#C0C0C0" stroke="none" paint-order="stroke fill markers" d=" M 249 169.5 C 249 147.1324656 299.36796 129 361.5 129 C 423.63204 129 474 147.1324656 474 169.5 C 474 191.8675344 423.63204 210 361.5 210 C 299.36796 210 249 191.8675344 249 169.5 Z" fill-opacity="0.2"/>
        </g>
        <g>
            <path fill="#ffffff" stroke="none" paint-order="stroke fill markers" d=" M 242 162.5 C 242 140.1324656 292.36796 122 354.5 122 C 416.63204 122 467 140.1324656 467 162.5 C 467 184.8675344 416.63204 203 354.5 203 C 292.36796 203 242 184.8675344 242 162.5 Z"/>
        </g>
        <g>
            <path fill="none" stroke="#000000" paint-order="fill stroke markers" d=" M 242 162.5 C 242 140.1324656 292.36796 122 354.5 122 C 416.63204 122 467 140.1324656 467 162.5 C 467 184.8675344 416.63204 203 354.5 203 C 292.36796 203 242 184.8675344 242 162.5 Z" stroke-miterlimit="10" stroke-dasharray=""/>
        </g>
        <g>
            <g>
                <path fill="none" stroke="none"/>
                <text fill="#000000" stroke="none" font-family="Arial" font-size="13px" font-style="normal" font-weight="bold" text-decoration="undefined" x="384.5" y="185.5" text-anchor="middle" dominant-baseline="central" transform="matrix(1 0 0 1 -30 -22)">Registra soccorritore</text>
            </g>
        </g>
        <g>
            <path fill="#C0C0C0" stroke="none" paint-order="stroke fill markers" d=" M 545 181 C 545 156.6994688 591.1146656 137 648 137 C 704.8853344 137 751 156.6994688 751 181 C 751 205.3005312 704.8853344 225 648 225 C 591.1146656 225 545 205.3005312 545 181 Z" fill-opacity="0.2"/>
        </g>
        <g>
            <path fill="#ffffff" stroke="none" paint-order="stroke fill markers" d=" M 538 174 C 538 149.6994688 584.1146656 130 641 130 C 697.8853344 130 744 149.6994688 744 174 C 744 198.3005312 697.8853344 218 641 218 C 584.1146656 218 538 198.3005312 538 174 Z"/>
        </g>
        <g>
            <path fill="none" stroke="#000000" paint-order="fill stroke markers" d=" M 538 174 C 538 149.6994688 584.1146656 130 641 130 C 697.8853344 130 744 149.6994688 744 174 C 744 198.3005312 697.8853344 218 641 218 C 584.1146656 218 538 198.3005312 538 174 Z" stroke-miterlimit="10" stroke-dasharray=""/>
        </g>
        <g>
            <g>
                <path fill="none" stroke="none"/>
                <text fill="#000000" stroke="none" font-family="Arial" font-size="13px" font-style="normal" font-weight="bold" text-decoration="undefined" x="671" y="197" text-anchor="middle" dominant-baseline="central" transform="matrix(1 0 0 1 -30 -22)">Inserisci certificazioni</text>
            </g>
        </g>
        <g>
            <path fill="none" stroke="#000000" paint-order="fill stroke markers" d=" M 468 167 L 537 170" stroke-miterlimit="10" stroke-dasharray="3"/>
        </g>
        <g>
            <path fill="none" stroke="#000000" paint-order="fill stroke markers" d=" M 526.6640673312673 173.76410625081493 L 537 170 L 527.0297668649936 165.35301697510945" stroke-miterlimit="10" stroke-dasharray=""/>
        </g>
        <g>
            <rect fill="#ffffff" stroke="none" x="505" y="156" width="55.65625" height="13" transform="matrix(1 0 0 1 -30 -22)"/>
        </g>
        <g>
            <g>
                <path fill="none" stroke="none"/>
                <text fill="#000000" stroke="none" font-family="Arial" font-size="13px" font-style="normal" font-weight="normal" text-decoration="undefined" x="532.828125" y="162.5" text-anchor="middle" dominant-baseline="central" transform="matrix(1 0 0 1 -30 -22)">«include»</text>
            </g>
        </g>
        <g>
            <path fill="none" stroke="#000000" paint-order="fill stroke markers" d=" M 186 146 L 241 151" stroke-miterlimit="10" stroke-dasharray=""/>
        </g>
        <g>
            <path fill="none" stroke="#000000" paint-order="fill stroke markers" d=" M 230.49794931923185 154.27214478569894 L 241 151 L 231.2601729802721 145.88768451425597" stroke-miterlimit="10" stroke-dasharray=""/>
        </g>
        <g>
            <path fill="#C0C0C0" stroke="none" paint-order="stroke fill markers" d=" M 185 325 C 185 296.2811904 240.29282719999998 273 308.5 273 C 376.7071728 273 432 296.2811904 432 325 C 432 353.7188096 376.7071728 377 308.5 377 C 240.29282719999998 377 185 353.7188096 185 325 Z" fill-opacity="0.2"/>
        </g>
        <g>
            <path fill="#ffffff" stroke="none" paint-order="stroke fill markers" d=" M 178 318 C 178 289.2811904 233.29282719999998 266 301.5 266 C 369.7071728 266 425 289.2811904 425 318 C 425 346.7188096 369.7071728 370 301.5 370 C 233.29282719999998 370 178 346.7188096 178 318 Z"/>
        </g>
        <g>
            <path fill="none" stroke="#000000" paint-order="fill stroke markers" d=" M 178 318 C 178 289.2811904 233.29282719999998 266 301.5 266 C 369.7071728 266 425 289.2811904 425 318 C 425 346.7188096 369.7071728 370 301.5 370 C 233.29282719999998 370 178 346.7188096 178 318 Z" stroke-miterlimit="10" stroke-dasharray=""/>
        </g>
        <g>
            <g>
                <path fill="none" stroke="none"/>
                <text fill="#000000" stroke="none" font-family="Arial" font-size="13px" font-style="normal" font-weight="bold" text-decoration="undefined" x="331.5" y="341" text-anchor="middle" dominant-baseline="central" transform="matrix(1 0 0 1 -30 -22)">Consulta schede-missione</text>
            </g>
        </g>
        <g>
            <path fill="none" stroke="#000000" paint-order="fill stroke markers" d=" M 186 217 L 241 265" stroke-miterlimit="10" stroke-dasharray=""/>
        </g>
        <g>
            <path fill="none" stroke="#000000" paint-order="fill stroke markers" d=" M 230.57528808961513 261.4892477180126 L 241 265 L 236.11109226191013 255.14613877059128" stroke-miterlimit="10" stroke-dasharray=""/>
        </g>
        <g>
            <path fill="#C0C0C0" stroke="none" paint-order="stroke fill markers" d=" M 257 53 C 257 33.1177472 299.9806592 17 353 17 C 406.0193408 17 449 33.1177472 449 53 C 449 72.8822528 406.0193408 89 353 89 C 299.9806592 89 257 72.8822528 257 53 Z" fill-opacity="0.2"/>
        </g>
        <g>
            <path fill="#ffffff" stroke="none" paint-order="stroke fill markers" d=" M 250 46 C 250 26.117747199999997 292.9806592 10 346 10 C 399.0193408 10 442 26.117747199999997 442 46 C 442 65.8822528 399.0193408 82 346 82 C 292.9806592 82 250 65.8822528 250 46 Z"/>
        </g>
        <g>
            <path fill="none" stroke="#000000" paint-order="fill stroke markers" d=" M 250 46 C 250 26.117747199999997 292.9806592 10 346 10 C 399.0193408 10 442 26.117747199999997 442 46 C 442 65.8822528 399.0193408 82 346 82 C 292.9806592 82 250 65.8822528 250 46 Z" stroke-miterlimit="10" stroke-dasharray=""/>
        </g>
        <g>
            <g>
                <path fill="none" stroke="none"/>
                <text fill="#000000" stroke="none" font-family="Arial" font-size="13px" font-style="normal" font-weight="bold" text-decoration="undefined" x="376" y="69" text-anchor="middle" dominant-baseline="central" transform="matrix(1 0 0 1 -30 -22)">Gestisci mezzi</text>
            </g>
        </g>
        <g>
            <path fill="none" stroke="#000000" paint-order="fill stroke markers" d=" M 186 105 L 249 82" stroke-miterlimit="10" stroke-dasharray=""/>
        </g>
        <g>
            <path fill="none" stroke="#000000" paint-order="fill stroke markers" d=" M 240.8972288929292 89.43942876748066 L 249 82 L 238.01000507414795 81.53094613342768" stroke-miterlimit="10" stroke-dasharray=""/>
        </g>
    </g>
</svg>